<svg width="110" height="18" fill="none" xmlns="http://www.w3.org/2000/svg"><path d="M17.94 7.192a1.238 1.238 0 00-1-.84l-4.726-.687-2.111-4.267c-.418-.843-1.8-.843-2.218 0L5.773 5.665 1.06 6.35a1.24 1.24 0 00-.998.843c-.146.446-.025.937.313 1.266l3.419 3.333-.807 4.702c-.079.463.112.933.493 1.21.382.276.888.312 1.303.093l4.211-2.22 4.223 2.22c.181.096.379.143.576.143.256 0 .512-.08.728-.235.381-.279.572-.747.492-1.211l-.805-4.702 3.42-3.333c.337-.327.458-.82.312-1.268zM40.94 7.192a1.238 1.238 0 00-1-.84l-4.726-.687-2.111-4.267c-.418-.843-1.8-.843-2.218 0l-2.112 4.267-4.714.686a1.24 1.24 0 00-.998.843c-.146.446-.025.937.313 1.266l3.419 3.333-.807 4.702c-.079.463.112.935.493 1.21.38.276.888.312 1.303.093l4.211-2.22 4.223 2.22c.181.096.379.143.576.143.256 0 .512-.08.728-.235.381-.279.572-.747.492-1.211l-.805-4.702 3.42-3.333c.337-.327.458-.82.312-1.268zM63.94 7.192a1.238 1.238 0 00-1-.84l-4.726-.687-2.111-4.267c-.418-.843-1.8-.843-2.218 0l-2.112 4.267-4.714.686a1.24 1.24 0 00-.998.843c-.146.446-.025.937.313 1.266l3.419 3.333-.807 4.702c-.079.463.112.933.493 1.21.382.276.888.312 1.303.093l4.211-2.22 4.223 2.22c.18.096.379.143.575.143.257 0 .513-.08.729-.235a1.24 1.24 0 00.492-1.211l-.805-4.702 3.42-3.333c.337-.327.458-.82.312-1.268zM86.94 7.192a1.238 1.238 0 00-1-.84l-4.726-.687-2.111-4.267c-.418-.844-1.8-.844-2.218 0l-2.112 4.267-4.714.686a1.24 1.24 0 00-.998.843c-.146.446-.025.937.313 1.266l3.419 3.333-.807 4.701c-.079.464.112.934.493 1.212.382.275.888.311 1.303.092l4.211-2.22 4.223 2.22c.18.096.379.143.576.143.255 0 .511-.08.728-.235.381-.279.572-.747.492-1.211l-.805-4.702 3.42-3.333c.337-.328.458-.82.312-1.268zM109.94 7.192a1.24 1.24 0 00-1-.841l-4.725-.687-2.112-4.267c-.418-.843-1.8-.843-2.218 0l-2.112 4.267-4.714.687a1.24 1.24 0 00-.998.842c-.146.447-.025.938.313 1.267l3.419 3.332-.807 4.702a1.237 1.237 0 001.797 1.304l4.212-2.22 4.224 2.22c.416.221.92.184 1.303-.094.38-.277.57-.746.491-1.21l-.805-4.702 3.419-3.333a1.24 1.24 0 00.313-1.267z" fill="#FCDD09"/></svg>