<svg id="Lock" xmlns="http://www.w3.org/2000/svg" viewBox="0 0 40 50"><defs><style>.cls-1{fill:#ffc107;}.cls-2{fill:#616161;}.cls-3{fill:#ffd54f;}.cls-4{fill:#424242;}.cls-5{fill:#ffb300;}</style></defs><title>lock-icon</title><rect id="_Path_" data-name="&lt;Path&gt;" class="cls-1" y="22.96" width="40" height="27.04" rx="1.51" ry="1.51"/><path class="cls-2" d="M9.83,23V14.05a10.17,10.17,0,0,1,20.34,0V23h3.88V14.05a14.05,14.05,0,1,0-28.1,0V23Z"/><path class="cls-2" d="M23.31,32.4A3.31,3.31,0,1,0,18,35.06L17,42.53h6L22,35.06A3.31,3.31,0,0,0,23.31,32.4Z"/><path class="cls-3" d="M1.26,25.81V31c.14-2.2,1.2-7,7.81-7h-6A1.81,1.81,0,0,0,1.26,25.81Z"/><path class="cls-4" d="M17,42.53s4.48-1.26,5-7.47L23,42.53Z"/><path class="cls-5" d="M.88,49.85a1.46,1.46,0,0,0,.63.15h37A1.5,1.5,0,0,0,40,48.49V38.31C29.92,44.79,16.2,49.06.88,49.85Z"/></svg>