<svg width="38" height="22" fill="none" xmlns="http://www.w3.org/2000/svg"><g clip-path="url(#clip0_16_232)" fill="#161616"><path d="M37.68 8.941l-1.76-4a3.97 3.97 0 00-1.492-1.747 4.087 4.087 0 00-2.228-.648h-2.843V1.53c0-.405-.165-.794-.457-1.08A1.578 1.578 0 0027.797 0H7.96a1.05 1.05 0 00-.737.297 1.011 1.011 0 00-.303.723c.005.269.116.525.31.715.194.19.456.3.73.304H27.2v7.53a1.644 1.644 0 00.5 1.196 1.71 1.71 0 001.22.49h6.92V16a.346.346 0 01-.105.248.36.36 0 01-.252.102H34.2a3.81 3.81 0 00-1.404-1.375 3.907 3.907 0 00-1.916-.507c-1.4 0-2.643.784-3.32 1.882H16.88a3.81 3.81 0 00-1.404-1.375 3.907 3.907 0 00-1.916-.507c-1.4 0-2.643.784-3.32 1.882H6.56c-.276 0-.54.108-.735.299a1.01 1.01 0 000 1.442c.195.191.46.298.735.298h3.16c.043.97.466 1.887 1.181 2.56a3.885 3.885 0 002.659 1.046c.99 0 1.943-.375 2.659-1.047A3.736 3.736 0 0017.4 18.39h9.643c.043.97.466 1.887 1.181 2.56a3.884 3.884 0 002.659 1.046c.99 0 1.943-.375 2.659-1.047a3.736 3.736 0 001.18-2.559h.842a2.475 2.475 0 001.719-.703A2.379 2.379 0 0038 16v-5.49a4.41 4.41 0 00-.32-1.569zm-24.12 11.02c-.348 0-.688-.101-.978-.29a1.733 1.733 0 01-.648-.775 1.695 1.695 0 01.38-1.88c.246-.241.56-.406.9-.473a1.793 1.793 0 011.018.097c.321.13.596.351.79.635a1.7 1.7 0 01.298.958c-.003.456-.19.894-.519 1.217-.33.323-.775.507-1.241.51zm17.32 0c-.348 0-.688-.102-.977-.292a1.734 1.734 0 01-.647-.775 1.694 1.694 0 01.382-1.879c.246-.24.56-.405.9-.472a1.794 1.794 0 011.017.098c.322.13.596.35.79.634.194.283.297.617.298.958-.004.457-.19.895-.52 1.218-.33.323-.776.506-1.243.51zM29.32 4.625h2.84c.76 0 1.48.431 1.76 1.137l1.52 3.45h-6.12V4.626z"/><path d="M4.96 6.314h7.357c.276 0 .54-.108.736-.299a1.01 1.01 0 000-1.442 1.05 1.05 0 00-.736-.299H4.96a1.05 1.05 0 00-.737.297 1.012 1.012 0 00-.303.723c.005.269.116.525.31.716.194.19.456.299.73.304zM3 10.235h7.357c.276 0 .54-.107.736-.298a1.01 1.01 0 000-1.442 1.05 1.05 0 00-.736-.299H3a1.051 1.051 0 00-.738.297 1.012 1.012 0 00-.302.723c.005.269.116.525.31.715.194.19.456.3.73.304zM9.48 13.137a.995.995 0 00-.302-.723 1.034 1.034 0 00-.738-.296h-7.4c-.276 0-.54.107-.735.298a1.01 1.01 0 000 1.442c.195.191.46.299.735.299h7.357a1.038 1.038 0 00.768-.277.998.998 0 00.312-.743h.003z"/></g><defs><clipPath id="clip0_16_232"><path fill="#fff" d="M0 0h38v22H0z"/></clipPath></defs></svg>